<?xml version="1.0" encoding="utf-8"?>
<!-- Generator: Adobe Illustrator 16.0.4, SVG Export Plug-In . SVG Version: 6.00 Build 0)  -->
<!DOCTYPE svg PUBLIC "-//W3C//DTD SVG 1.1//EN" "http://www.w3.org/Graphics/SVG/1.1/DTD/svg11.dtd">
<svg version="1.1" id="Layer_1" xmlns="http://www.w3.org/2000/svg" xmlns:xlink="http://www.w3.org/1999/xlink" x="0px" y="0px"
	 width="100px" height="100px" viewBox="0 0 100 100" enable-background="new 0 0 100 100" xml:space="preserve">
<path d="M0,50v-2.295c20.948-0.391,38.086-2.686,52.198-7.08c1.61,3.222,3.026,6.347,4.394,9.619
	c-1.269,0.342-2.539,0.683-3.809,1.123c-15.723,5.566-29.053,16.455-39.6,32.568C4.98,75,0,63.086,0,50 M1.025,40.039
	C4.15,24.316,14.795,11.23,29.053,4.638c8.008,9.717,14.453,19.532,19.678,29.151C35.742,37.597,20.02,39.697,1.025,40.039 M50,100
	c-11.67,0-22.56-4.053-31.006-10.742c11.67-18.408,25.928-27.93,40.381-31.982c5.323,14.16,8.35,27.344,10.303,38.672
	C63.525,98.633,56.934,100,50,100 M37.5,1.611C41.553,0.586,45.703,0,50,0c12.842,0,24.561,4.883,33.35,12.842
	c-6.738,7.763-15.43,13.769-26.416,18.164C51.758,21.289,45.361,11.328,37.5,1.611 M65.039,48.242
	c-1.367-3.467-2.979-6.933-4.639-10.498c11.572-4.639,20.947-11.133,28.271-19.434c7.031,8.545,11.23,19.532,11.328,31.446
	C87.598,46.972,75.928,46.435,65.039,48.242 M77.539,91.65c-1.953-10.742-4.834-22.998-9.716-36.084
	c10.985-1.611,21.875-0.488,31.591,1.953C97.314,71.777,89.111,84.033,77.539,91.65"/>
</svg>
